<svg width="21" height="23" viewBox="0 0 21 23" fill="none" xmlns="http://www.w3.org/2000/svg">
<path d="M19.896 18.9435L19.8238 19.0127L19.896 18.9435C18.1215 17.093 17.1444 14.6623 17.1444 12.0986V10.0777C17.1444 7.11038 15.1892 4.59193 12.5 3.74126V2.89999C12.5 1.79711 11.6029 0.9 10.5 0.9C9.39712 0.9 8.50002 1.79711 8.50002 2.89999V3.74126C5.81075 4.59192 3.85559 7.11034 3.85559 10.0777V12.0986C3.85559 14.6623 2.87849 17.093 1.10406 18.9435C0.900692 19.1555 0.843538 19.4685 0.958819 19.7387C1.0741 20.009 1.33956 20.1844 1.63338 20.1844H7.31645C7.65015 21.6336 8.95061 22.7177 10.5 22.7177C12.0495 22.7177 13.3498 21.6336 13.6836 20.1844H19.3666C19.6605 20.1844 19.9259 20.009 20.0412 19.7387C20.1564 19.4685 20.0993 19.1556 19.896 18.9435ZM9.96668 2.89999C9.96668 2.606 10.206 2.36666 10.5 2.36666C10.794 2.36666 11.0333 2.606 11.0333 2.89999V3.45484C10.8574 3.44072 10.6796 3.43332 10.5 3.43332C10.3204 3.43332 10.1426 3.44072 9.96668 3.45484V2.89999ZM10.5 21.251C9.76889 21.251 9.13804 20.8125 8.85665 20.1844H12.1434C11.862 20.8125 11.2311 21.251 10.5 21.251ZM3.19563 18.7177C4.57605 16.7985 5.32225 14.499 5.32225 12.0986V10.0777C5.32225 7.22281 7.64508 4.89998 10.5 4.89998C13.3549 4.89998 15.6778 7.22281 15.6778 10.0777V12.0986C15.6778 14.499 16.424 16.7985 17.8044 18.7177H3.19563Z" fill="#C5C5C5" stroke="#C5C5C5" stroke-width="0.2"/>
</svg>
