<svg width="12" height="14" viewBox="0 0 12 14" fill="none" xmlns="http://www.w3.org/2000/svg">
<path d="M7.50391 14H2.28125C1.07503 14 0.09375 13.0187 0.09375 11.8125V4.40234C0.09375 3.19612 1.07503 2.21484 2.28125 2.21484H7.50391C8.71013 2.21484 9.69141 3.19612 9.69141 4.40234V11.8125C9.69141 13.0187 8.71013 14 7.50391 14ZM2.28125 3.30859C1.67819 3.30859 1.1875 3.79929 1.1875 4.40234V11.8125C1.1875 12.4156 1.67819 12.9062 2.28125 12.9062H7.50391C8.10696 12.9062 8.59766 12.4156 8.59766 11.8125V4.40234C8.59766 3.79929 8.10696 3.30859 7.50391 3.30859H2.28125ZM11.8789 10.4453V2.1875C11.8789 0.981277 10.8976 0 9.69141 0H3.62109C3.31903 0 3.07422 0.244812 3.07422 0.546875C3.07422 0.848938 3.31903 1.09375 3.62109 1.09375H9.69141C10.2945 1.09375 10.7852 1.58444 10.7852 2.1875V10.4453C10.7852 10.7474 11.03 10.9922 11.332 10.9922C11.6341 10.9922 11.8789 10.7474 11.8789 10.4453Z" fill="white"/>
</svg>
