<svg width="10" height="14" viewBox="0 0 10 14" fill="none" xmlns="http://www.w3.org/2000/svg">
<path fill-rule="evenodd" clip-rule="evenodd" d="M0.199775 10.1538C0.466142 9.88744 0.898009 9.88744 1.16438 10.1538L2.6818 11.6712L2.6818 1.02633C2.6818 0.649633 2.98717 0.344257 3.36387 0.344257C3.74057 0.344257 4.04595 0.649633 4.04595 1.02633L4.04595 13.3179C4.04595 13.5938 3.87977 13.8425 3.62489 13.9481C3.37002 14.0536 3.07664 13.9953 2.88157 13.8002L0.199775 11.1184C-0.0665919 10.852 -0.0665919 10.4202 0.199775 10.1538Z" fill="white"/>
<path fill-rule="evenodd" clip-rule="evenodd" d="M9.49944 4.19043C9.23308 4.4568 8.80121 4.4568 8.53484 4.19043L7.01742 2.67301L7.01742 13.3179C7.01742 13.6946 6.71205 14 6.33535 14C5.95865 14 5.65327 13.6946 5.65327 13.3179L5.65327 1.02633C5.65327 0.75046 5.81945 0.501751 6.07433 0.396178C6.3292 0.290606 6.62257 0.348961 6.81765 0.544034L9.49944 3.22583C9.76581 3.4922 9.76581 3.92406 9.49944 4.19043Z" fill="white"/>
</svg>
