<svg width="12" height="12" fill="none" xmlns="http://www.w3.org/2000/svg"><path opacity=".3" fill-rule="evenodd" clip-rule="evenodd" d="M9.163 5.582a3.582 3.582 0 11-7.163 0 3.582 3.582 0 017.163 0zm-.836 3.667a4.582 4.582 0 11.572-.508l1.99 1.99a.382.382 0 11-.54.54L8.326 9.248z" fill="#000"/><path opacity=".3" fill-rule="evenodd" clip-rule="evenodd" d="M5.582 9.063a3.482 3.482 0 100-6.963 3.482 3.482 0 000 6.963zm2.736.318a4.682 4.682 0 11.72-.642l1.921 1.92a.482.482 0 01-.68.682l-1.961-1.96zm.01-.132a4.582 4.582 0 11.572-.508l1.989 1.99a.382.382 0 01-.54.54L8.328 9.248zm-2.746-.086a3.582 3.582 0 100-7.163 3.582 3.582 0 000 7.163z" fill="#000"/></svg>