<svg width="22" height="22" viewBox="0 0 22 22" fill="none" xmlns="http://www.w3.org/2000/svg">
<path d="M20.6666 2.9559C20.2062 2.91393 19.799 3.25313 19.757 3.71349L19.6461 4.93006C17.7645 1.97512 14.4983 0 10.7138 0C6.64245 0 3.05451 2.32366 1.27341 5.81119C1.06315 6.22288 1.22645 6.72706 1.63814 6.93732C2.04991 7.14758 2.55401 6.98432 2.76427 6.57259C4.27162 3.62108 7.29859 1.67404 10.7138 1.67404C13.8265 1.67404 16.6357 3.29498 18.245 5.83438L17.0515 4.982C16.6753 4.71336 16.1526 4.80049 15.8839 5.17665C15.6153 5.55285 15.7024 6.07557 16.0786 6.34425L19.6976 8.92902C20.2281 9.30714 20.9597 8.96099 21.0177 8.32389L21.4241 3.86549C21.4661 3.40509 21.1269 2.99788 20.6666 2.9559Z" fill="#38C6DD"/>
<path d="M19.7895 14.4904C19.3777 14.2801 18.8736 14.4434 18.6633 14.8551C17.156 17.8066 14.129 19.7536 10.7138 19.7536C7.60108 19.7536 4.79195 18.1327 3.18261 15.5933L4.37607 16.4457C4.75227 16.7143 5.27499 16.6272 5.54368 16.251C5.81232 15.8748 5.72519 15.3521 5.34903 15.0834L1.72995 12.4987C1.20602 12.1244 0.468519 12.4601 0.409928 13.1038L0.00351163 17.5622C-0.038465 18.0226 0.300738 18.4298 0.761059 18.4717C1.22201 18.5136 1.62867 18.1741 1.67061 17.7142L1.78151 16.4976C3.66306 19.4526 6.92928 21.4277 10.7138 21.4277C14.7852 21.4277 18.3731 19.104 20.1542 15.6165C20.3645 15.2048 20.2012 14.7006 19.7895 14.4904Z" fill="#38C6DD"/>
</svg>
