<svg width="49" height="15" viewBox="0 0 49 15" fill="none" xmlns="http://www.w3.org/2000/svg">
<g clip-path="url(#clip0)">
<path d="M9.89665 3.34346L8.68343 10.9906H10.6226L11.8351 3.34346H9.89665ZM15.7459 6.45846C15.0683 6.1195 14.6528 5.89073 14.6528 5.54405C14.6611 5.22884 15.0041 4.90591 15.7701 4.90591C16.4001 4.88988 16.8632 5.03985 17.2145 5.18906L17.3905 5.26862L17.6541 3.66866C17.2711 3.51869 16.6638 3.35345 15.9136 3.35345C13.9986 3.35345 12.6502 4.36193 12.6418 5.80429C12.626 6.86867 13.6072 7.45931 14.3416 7.81363C15.0917 8.17709 15.3471 8.41274 15.3471 8.73567C15.3388 9.23148 14.7405 9.46025 14.1822 9.46025C13.4087 9.46025 12.9932 9.34243 12.3624 9.06616L12.1071 8.94833L11.8359 10.6111C12.2914 10.8162 13.1292 10.9967 13.9987 11.0059C16.0338 11.0059 17.3581 10.0127 17.3747 8.47551C17.3814 7.63227 16.8639 6.98641 15.7459 6.45846ZM22.6255 3.36713H21.1252C20.6629 3.36713 20.3116 3.50182 20.1114 3.98235L17.231 10.9906H19.2661L19.8266 9.47326H22.1035L22.3943 10.9967H24.1892L22.6255 3.36713ZM20.391 7.94203C20.4303 7.94589 21.1721 5.46516 21.1721 5.46516L21.7629 7.94203C21.7629 7.94203 20.774 7.94203 20.391 7.94203ZM7.06308 3.34346L5.16317 8.53896L4.9562 7.51436C4.60491 6.33216 3.50354 5.04749 2.27441 4.40935L4.01416 10.9829H6.06594L9.11485 3.3443H7.06308V3.34346Z" fill="#2394BC"/>
<path d="M4.31703 4.33116C4.16897 3.74807 3.69679 3.35481 3.05551 3.34642H0.0466121L0.015625 3.48791C2.36277 4.07402 4.33285 5.87749 4.97198 7.57389L4.31703 4.33116Z" fill="#EFC75E"/>
</g>
<path fill-rule="evenodd" clip-rule="evenodd" d="M41.1009 11.2361H36.4131V2.7478H41.1011L41.1009 11.2361Z" fill="#FF5F00"/>
<path fill-rule="evenodd" clip-rule="evenodd" d="M36.7098 6.99214C36.7098 5.27029 37.51 3.73646 38.756 2.74798C37.813 1.99881 36.6461 1.59196 35.4452 1.59377C32.4864 1.59377 30.0879 4.01066 30.0879 6.99214C30.0879 9.97357 32.4864 12.3905 35.4452 12.3905C36.6461 12.3923 37.8131 11.9854 38.7561 11.2363C37.5102 10.2479 36.7098 8.71405 36.7098 6.99214Z" fill="#EB001B"/>
<path fill-rule="evenodd" clip-rule="evenodd" d="M47.4255 6.99214C47.4255 9.97356 45.027 12.3905 42.0682 12.3905C40.8672 12.3922 39.7 11.9854 38.7568 11.2362C40.0032 10.2478 40.8034 8.71405 40.8034 6.99214C40.8034 5.27017 40.0032 3.73646 38.7568 2.74798C39.7 1.99881 40.8671 1.59202 42.0681 1.59377C45.0269 1.59377 47.4254 4.01066 47.4254 6.99214" fill="#F79410"/>
<defs>
<clipPath id="clip0">
<rect width="24.1736" height="11.25" fill="white" transform="translate(0.015625 1.54965)"/>
</clipPath>
</defs>
</svg>
