<svg width="20" height="20" viewBox="0 0 20 20" fill="none" xmlns="http://www.w3.org/2000/svg">
<g clip-path="url(#clip0)">
<path d="M4.67355 3.99612L12.6466 1.89754L12.2244 1.07457C11.9481 0.539638 11.2743 0.318735 10.7196 0.585118L3.58203 3.99612H4.67355Z" fill="#38C6DD"/>
<path d="M15.1224 1.95819C15.0236 1.95819 14.9247 1.97119 14.8259 1.99717L12.9528 2.49096L7.23242 3.99613H13.7254H16.5553L16.2049 2.75734C16.0702 2.27439 15.6165 1.95819 15.1224 1.95819Z" fill="#38C6DD"/>
<path d="M17.7249 4.75412H17.4688H17.1207H16.7726H14.1157H4.35261H3.07243H1.99439H1.7945H1.12521C0.770354 4.75412 0.453678 4.91222 0.247052 5.16127C0.152723 5.27606 0.0808535 5.40817 0.0404267 5.55327C0.0157215 5.64423 0 5.73952 0 5.83698V5.96692V7.20138V17.9022C0 18.4999 0.503088 18.985 1.12296 18.985H17.7226C18.3425 18.985 18.8456 18.4999 18.8456 17.9022V14.881H12.1819C11.1286 14.881 10.2729 14.0559 10.2729 13.0402V12.0483V11.7126V11.3769V10.6319C10.2729 10.1338 10.4795 9.68115 10.8142 9.34979C11.1106 9.05523 11.5081 8.85599 11.9528 8.80618C12.027 8.79754 12.1033 8.79318 12.1797 8.79318H17.9113H18.2594H18.6075H18.8456V5.83698C18.8478 5.23924 18.3448 4.75412 17.7249 4.75412Z" fill="#38C6DD"/>
<path d="M19.6336 9.8284C19.5213 9.72877 19.3887 9.65297 19.2405 9.60316C19.126 9.56637 19.0047 9.54471 18.8767 9.54471H18.8475H18.825H18.4769H17.2214H12.1816C11.5617 9.54471 11.0586 10.0298 11.0586 10.6276V11.1668V11.5025V11.8382V13.038C11.0586 13.6357 11.5617 14.1208 12.1816 14.1208H18.8475H18.8767C19.0047 14.1208 19.126 14.0992 19.2405 14.0624C19.3887 14.0147 19.5213 13.9368 19.6336 13.8371C19.8581 13.6401 19.9996 13.3542 19.9996 13.038V10.6276C19.9996 10.3114 19.8581 10.0255 19.6336 9.8284ZM14.5263 12.0483C14.5263 12.3471 14.2748 12.5897 13.9648 12.5897H13.592C13.2821 12.5897 13.0305 12.3471 13.0305 12.0483V11.6887C13.0305 11.5155 13.1136 11.3617 13.2461 11.2642C13.3427 11.1928 13.4618 11.1473 13.592 11.1473H13.6863H13.9648C14.2748 11.1473 14.5263 11.3899 14.5263 11.6887V12.0483Z" fill="#38C6DD"/>
</g>
<defs>
<clipPath id="clip0">
<rect width="20" height="19.2857" fill="white" transform="translate(0 0.0856934)"/>
</clipPath>
</defs>
</svg>
