<svg width="13" height="13" viewBox="0 0 13 13" fill="none" xmlns="http://www.w3.org/2000/svg">
<path d="M11.125 1.125H1.875C0.841115 1.125 0 1.96612 0 3V9.99999C0 11.0339 0.841115 11.875 1.875 11.875H11.125C12.1589 11.875 13 11.0339 13 9.99999V3C13 1.96612 12.1589 1.125 11.125 1.125ZM12.25 7.625H9.5C8.87969 7.625 8.375 7.12034 8.375 6.49999C8.375 5.87965 8.87966 5.37499 9.5 5.37499H12.25V7.625ZM12.25 4.625H9.5C8.46612 4.625 7.62501 5.46611 7.62501 6.49999C7.62501 7.53388 8.46612 8.37499 9.5 8.37499H12.25V9.99999C12.25 10.6203 11.7453 11.125 11.125 11.125H1.875C1.25468 11.125 0.749988 10.6203 0.749988 9.99999V3C0.749988 2.37968 1.25465 1.87499 1.875 1.87499H11.125C11.7453 1.87499 12.25 2.37965 12.25 3V4.625Z" fill="#252525"/>
<path fill-rule="evenodd" clip-rule="evenodd" d="M1.875 0.875H11.125C12.297 0.875 13.25 1.82804 13.25 3V9.99999C13.25 11.1719 12.297 12.125 11.125 12.125H1.875C0.703044 12.125 -0.25 11.1719 -0.25 9.99999V3C-0.25 1.82804 0.703044 0.875 1.875 0.875ZM9.5 7.375H12V5.62499H9.5C9.01773 5.62499 8.625 6.01772 8.625 6.49999C8.625 6.98226 9.01775 7.375 9.5 7.375ZM9.5 4.375H12V3C12 2.51773 11.6073 2.12499 11.125 2.12499H1.875C1.39273 2.12499 0.999988 2.51775 0.999988 3V9.99999C0.999988 10.4823 1.39275 10.875 1.875 10.875H11.125C11.6073 10.875 12 10.4822 12 9.99999V8.62499H9.5C8.32805 8.62499 7.37501 7.67195 7.37501 6.49999C7.37501 5.32804 8.32805 4.375 9.5 4.375ZM1.875 1.125H11.125C12.1589 1.125 13 1.96612 13 3V9.99999C13 11.0339 12.1589 11.875 11.125 11.875H1.875C0.841115 11.875 0 11.0339 0 9.99999V3C0 1.96612 0.841115 1.125 1.875 1.125ZM12.25 7.625V5.37499H9.5C8.87966 5.37499 8.375 5.87965 8.375 6.49999C8.375 7.12034 8.87969 7.625 9.5 7.625H12.25ZM12.25 4.625V3C12.25 2.37965 11.7453 1.87499 11.125 1.87499H1.875C1.25465 1.87499 0.749988 2.37968 0.749988 3V9.99999C0.749988 10.6203 1.25468 11.125 1.875 11.125H11.125C11.7453 11.125 12.25 10.6203 12.25 9.99999V8.37499H9.5C8.46612 8.37499 7.62501 7.53388 7.62501 6.49999C7.62501 5.46611 8.46612 4.625 9.5 4.625H12.25Z" fill="#252525"/>
<path d="M9.99999 6.125H9.49999C9.29288 6.125 9.125 6.29291 9.125 6.49999C9.125 6.70711 9.29291 6.87499 9.49999 6.87499H9.99999C10.2071 6.87499 10.375 6.70708 10.375 6.49999C10.375 6.29288 10.2071 6.125 9.99999 6.125Z" fill="#252525"/>
<path fill-rule="evenodd" clip-rule="evenodd" d="M9.50038 6.02499H10.0004C10.2627 6.02499 10.4754 6.23765 10.4754 6.49999C10.4754 6.7623 10.2627 6.97498 10.0004 6.97498H9.50038C9.23807 6.97498 9.02539 6.76233 9.02539 6.49999C9.02539 6.23768 9.23804 6.02499 9.50038 6.02499ZM9.50038 6.12499H10.0004C10.2075 6.12499 10.3754 6.29288 10.3754 6.49999C10.3754 6.70707 10.2075 6.87498 10.0004 6.87498H9.50038C9.2933 6.87498 9.12539 6.7071 9.12539 6.49999C9.12539 6.2929 9.29327 6.12499 9.50038 6.12499Z" fill="#252525"/>
</svg>
