<?xml version="1.0" standalone="no"?>
<!DOCTYPE svg PUBLIC "-//W3C//DTD SVG 20010904//EN"
"http://www.w3.org/TR/2001/REC-SVG-20010904/DTD/svg10.dtd">
<svg version="1.0" xmlns="http://www.w3.org/2000/svg"
width="602.000000pt" height="602.000000pt" viewBox="0 0 602.000000 602.000000"
preserveAspectRatio="xMidYMid meet">
<metadata>
Created by potrace 1.14, written by Peter Selinger 2001-2017
</metadata>
<g transform="translate(0.000000,602.000000) scale(0.100000,-0.100000)"
fill="#000000" stroke="none">
<path d="M2790 5550 c-52 -9 -129 -30 -170 -44 -41 -15 -79 -28 -85 -30 -32
-7 -142 -68 -220 -121 -88 -59 -255 -212 -255 -234 0 -6 -4 -11 -8 -11 -16 0
-132 -188 -171 -279 -67 -154 -94 -280 -97 -456 -5 -239 28 -390 128 -590 36
-71 110 -191 127 -205 4 -3 28 -31 55 -63 l49 -58 -31 -32 c-17 -18 -300 -300
-628 -627 -328 -327 -602 -609 -609 -626 -8 -17 -12 -39 -10 -50 2 -10 4 -25
4 -32 1 -18 268 -289 303 -308 31 -16 86 -18 108 -4 8 5 299 293 646 640 l631
630 469 -468 c258 -258 482 -484 497 -503 16 -19 46 -70 67 -114 149 -310 40
-676 -253 -845 -111 -65 -191 -85 -332 -85 -129 0 -194 14 -290 64 -60 31
-141 89 -174 124 l-24 26 304 304 c279 279 304 308 307 341 1 20 -4 49 -12 64
-8 15 -79 91 -159 170 -133 131 -148 142 -182 142 -20 0 -46 -5 -58 -11 -41
-21 -956 -943 -967 -973 -23 -65 -11 -82 222 -313 264 -262 240 -239 319 -295
155 -111 335 -185 524 -215 61 -10 325 -11 380 -1 180 30 342 93 497 194 241
155 432 424 507 711 29 115 35 170 35 318 0 169 -9 226 -59 384 -53 166 -145
319 -279 464 l-25 27 635 635 c671 672 658 657 641 727 -6 22 -132 156 -260
276 -46 43 -62 52 -92 52 -20 0 -44 -4 -54 -10 -10 -5 -303 -293 -651 -640
l-632 -630 -478 477 c-326 327 -491 498 -519 542 -141 219 -137 487 12 726 6
11 44 52 84 91 98 98 188 143 355 180 62 14 257 -4 301 -27 9 -5 17 -7 17 -5
0 8 100 -44 150 -77 25 -17 62 -48 82 -69 l37 -37 -300 -301 c-315 -315 -323
-324 -306 -392 6 -21 194 -219 283 -297 41 -37 97 -42 135 -12 32 25 915 908
940 939 12 16 19 41 19 69 l0 44 -235 234 c-129 129 -267 257 -307 285 -271
191 -621 270 -938 210z"/>
<path d="M667 3742 l-667 -667 0 -65 0 -64 118 -119 c149 -152 183 -177 236
-177 40 0 44 4 575 534 l535 535 -26 78 c-64 194 -90 343 -92 536 0 42 -3 77
-6 77 -3 0 -305 -300 -673 -668z"/>
<path d="M5615 3356 c-11 -7 -255 -248 -542 -535 l-522 -521 26 -73 c29 -84
27 -77 53 -189 25 -111 29 -144 36 -298 3 -69 8 -127 10 -129 2 -2 305 298
674 667 l671 671 -4 64 -5 64 -137 137 c-75 75 -145 141 -155 146 -27 14 -82
12 -105 -4z"/>
</g>
</svg>
